<svg width="78" height="78" viewBox="0 0 78 78" fill="none" xmlns="http://www.w3.org/2000/svg">
<path d="M76.3403 0H1.65949C0.743229 0 0 0.742273 0 1.65965V76.3405C0 77.2579 0.743229 78 1.65949 78H76.3403C77.2569 78 78 77.2579 78 76.3403V1.65965C78 0.742273 77.2569 0 76.3403 0ZM3.31914 3.31914H74.6809V19.4725H3.31914V3.31914ZM74.6809 74.6809H3.31914V22.7916H74.6809V74.6809Z" fill="#497BB8"/>
<path d="M50.5571 8.86841H47.2379V13.925H50.5571V8.86841Z" fill="#497BB8"/>
<path d="M60.7438 8.86841H57.4247V13.925H60.7438V8.86841Z" fill="#497BB8"/>
<path d="M70.9313 8.86841H67.6121V13.925H70.9313V8.86841Z" fill="#497BB8"/>
<path d="M28.19 51.6167L19.0804 47.3033L28.19 43.1041V38.9326L14.3998 45.4305V49.3181L28.19 55.816V51.6167Z" fill="#497BB8"/>
<path d="M46.9725 35.7263H42.9431L31.0556 61.747H35.0549L46.9725 35.7263Z" fill="#497BB8"/>
<path d="M63.6009 45.4305L49.8106 38.9326V43.1041L58.9202 47.3033L49.8106 51.6167V55.816L63.6009 49.3181V45.4305Z" fill="#497BB8"/>
</svg>
