<svg width="78" height="78" viewBox="0 0 78 78" fill="none" xmlns="http://www.w3.org/2000/svg">
<g clip-path="url(#clip0)">
<path d="M76.5448 47.994C76.4168 46.2967 75.5574 44.7445 74.1871 43.735C71.8467 42.0112 68.6563 42.2519 66.6012 44.3071L61.6594 49.2487C59.3866 51.5217 56.4882 52.9416 53.3526 53.3494C53.7391 52.5787 53.958 51.71 53.958 50.7906C53.958 47.6319 51.3883 45.062 48.2295 45.062H38.8499C36.1997 42.6351 32.7876 41.3062 29.1714 41.3062C23.8719 41.3062 18.8896 43.37 15.1424 47.1172L10.5901 51.6695L9.58953 51.0918C8.86086 50.6712 7.92912 50.9207 7.50849 51.6494L1.64319 61.8084C1.22241 62.5371 1.47211 63.4687 2.20078 63.8894L8.28759 67.4036C9.01611 67.8244 9.948 67.5747 10.3686 66.846C10.7894 66.1173 10.5397 65.1857 9.81104 64.765L5.0437 62.0125L9.38554 54.4923L30.833 66.8749L26.4912 74.3952L21.6838 71.6196C20.9551 71.1991 20.0235 71.4485 19.6027 72.1772C19.182 72.9058 19.4317 73.8374 20.1603 74.2582L26.2871 77.7955C26.527 77.934 26.7889 78 27.0474 78C27.5739 78 28.086 77.7267 28.3681 77.2379L34.2334 67.0789C34.431 66.7368 34.4866 66.3318 34.3912 65.9491H51.5391C57.9377 65.9491 63.9534 63.4575 68.4779 58.9329L74.8524 52.5583C76.0557 51.355 76.6726 49.6913 76.5448 47.994ZM72.6977 50.404L66.3233 56.7785C62.3742 60.7276 57.1238 62.9024 51.5389 62.9024H30.0459L13.322 53.2467L17.297 49.2717C20.4688 46.0999 24.6859 44.3531 29.1716 44.3531C32.1898 44.3531 35.0274 45.5284 37.1618 47.6628C37.4474 47.9484 37.835 48.109 38.239 48.109H48.2297C49.7084 48.109 50.9113 49.3119 50.9113 50.7908C50.9113 52.2693 49.7084 53.4723 48.2297 53.4723H36.6485C35.8071 53.4723 35.1251 54.1545 35.1251 54.9958C35.1251 55.837 35.8071 56.5193 36.6485 56.5193H51.4634C56.129 56.5193 60.5151 54.7024 63.8139 51.4035L68.7557 46.4619C69.7375 45.4798 71.2617 45.3648 72.3801 46.1886C73.0347 46.6707 73.4455 47.4125 73.5065 48.2233C73.5675 49.0341 73.2729 49.8288 72.6977 50.404Z" fill="#497BB8"/>
<path d="M31.6801 21.948L38.4776 26.8641L35.8737 34.8187C35.4391 36.1467 35.8886 37.5353 37.0189 38.3566C38.1493 39.1778 39.6088 39.1761 40.7375 38.3525L47.4981 33.4179L54.2588 38.3525C54.8241 38.7652 55.4723 38.9715 56.1207 38.9715C56.7668 38.9715 57.4131 38.7666 57.9774 38.3568C59.1078 37.5355 59.5573 36.1469 59.1227 34.8189L56.5188 26.8643L63.3163 21.9481C64.4472 21.1303 64.9001 19.7438 64.4703 18.4161C64.0406 17.0884 62.861 16.2304 61.4653 16.2304H53.0732L50.5035 8.28058C50.074 6.95228 48.8944 6.09381 47.4981 6.09381C46.1019 6.09381 44.9223 6.95228 44.4928 8.28058L41.923 16.2304H33.5309C32.1353 16.2304 30.9558 17.0883 30.5261 18.4161C30.0963 19.7438 30.5492 21.1302 31.6801 21.948ZM33.4249 19.3544C33.4499 19.2773 33.4839 19.2773 33.5309 19.2773H43.0317C43.6925 19.2773 44.278 18.8512 44.4812 18.2225L47.3919 9.21796C47.4064 9.17317 47.4169 9.14072 47.498 9.14072C47.5792 9.14072 47.5897 9.17317 47.6042 9.21796L50.5149 18.2225C50.7181 18.8512 51.3036 19.2773 51.9644 19.2773H61.4652C61.5122 19.2773 61.5464 19.2773 61.5714 19.3546C61.5963 19.4317 61.5688 19.4516 61.5305 19.4792L53.832 25.0468C53.2953 25.435 53.0709 26.1256 53.2769 26.7552L56.2266 35.7666C56.2412 35.8114 56.2519 35.8437 56.1862 35.8914C56.1206 35.9391 56.093 35.919 56.0549 35.8912L48.3961 30.3012C47.8609 29.9106 47.1349 29.9106 46.5997 30.3012L38.941 35.8912C38.9028 35.9191 38.8752 35.9389 38.8097 35.8914C38.7441 35.8437 38.7547 35.8114 38.7693 35.7666L41.7191 26.7552C41.9252 26.1256 41.7008 25.435 41.1639 25.0468L33.4654 19.4792C33.4275 19.4516 33.3999 19.4317 33.4249 19.3544Z" fill="#497BB8"/>
<path d="M59.3975 5.63672H60.4639V6.70312C60.4639 7.54437 61.146 8.22656 61.9874 8.22656C62.8288 8.22656 63.5108 7.54437 63.5108 6.70312V5.63672H64.5772C65.4186 5.63672 66.1006 4.95452 66.1006 4.11328C66.1006 3.27204 65.4186 2.58984 64.5772 2.58984H63.5108V1.52344C63.5108 0.682195 62.8288 0 61.9874 0C61.146 0 60.4639 0.682195 60.4639 1.52344V2.58984H59.3975C58.5561 2.58984 57.8741 3.27204 57.8741 4.11328C57.8741 4.95452 58.5561 5.63672 59.3975 5.63672Z" fill="#497BB8"/>
<path d="M20.6172 31.4338H21.6836V32.5002C21.6836 33.3415 22.3657 34.0237 23.207 34.0237C24.0484 34.0237 24.7305 33.3415 24.7305 32.5002V31.4338H25.7969C26.6383 31.4338 27.3203 30.7516 27.3203 29.9104C27.3203 29.0692 26.6383 28.387 25.7969 28.387H24.7305V27.3206C24.7305 26.4793 24.0484 25.7971 23.207 25.7971C22.3657 25.7971 21.6836 26.4793 21.6836 27.3206V28.387H20.6172C19.7758 28.387 19.0938 29.0692 19.0938 29.9104C19.0938 30.7516 19.7758 31.4338 20.6172 31.4338Z" fill="#497BB8"/>
<path d="M14.9859 67.9888C14.5837 67.9888 14.1922 68.1503 13.9088 68.4337C13.6239 68.7184 13.4625 69.1114 13.4625 69.5123C13.4625 69.9129 13.6239 70.306 13.9088 70.5892C14.1922 70.8725 14.5837 71.034 14.9859 71.034C15.3866 71.034 15.7796 70.8725 16.063 70.5892C16.3463 70.306 16.5093 69.9129 16.5093 69.5123C16.5093 69.1114 16.3463 68.7184 16.063 68.4337C15.7796 68.1503 15.3866 67.9888 14.9859 67.9888Z" fill="#497BB8"/>
</g>
<defs>
<clipPath id="clip0">
<rect width="78" height="78" fill="white"/>
</clipPath>
</defs>
</svg>
