<svg width="78" height="78" viewBox="0 0 78 78" fill="none" xmlns="http://www.w3.org/2000/svg">
<g clip-path="url(#clip0)">
<path d="M24.7826 30.4084C24.5746 30.0003 24.1677 29.7325 23.7114 29.7026L12.7754 28.9734C12.2087 28.9175 11.6848 29.2685 11.4781 29.7962L3.59419 49.9447C3.38228 50.4855 3.55519 51.1003 4.018 51.4525C4.24941 51.6293 4.52759 51.7178 4.80439 51.7178C5.07861 51.7178 5.35298 51.632 5.58439 51.4579L12.1281 46.5508L15.9382 47.3125C16.5596 47.436 17.1808 47.0954 17.4071 46.5014C19.4532 41.1419 21.9164 36.1581 24.7254 31.6904C24.9686 31.3027 24.9907 30.8152 24.7826 30.4084ZM15.3765 44.5487L12.067 43.8871C11.7056 43.8156 11.3286 43.9014 11.0323 44.1223L7.67985 46.6362L13.5514 31.6302L21.4003 32.1528C19.1384 35.9811 17.1184 40.1381 15.3765 44.5487Z" fill="#497BB8"/>
<path d="M49.0271 65.2262L48.2978 54.2888C48.2666 53.8312 47.9987 53.4244 47.5906 53.2163C47.1837 53.0084 46.6962 53.0291 46.309 53.2735C41.8399 56.0825 36.8573 58.5459 31.4979 60.5918C30.9052 60.8167 30.562 61.4381 30.6869 62.0607L31.4486 65.8708L26.5415 72.4131C26.1931 72.8785 26.1945 73.5181 26.5467 73.9809C26.7976 74.311 27.1836 74.4943 27.5814 74.4943C27.74 74.4943 27.8999 74.4644 28.0558 74.4071L48.2043 66.5233C48.732 66.3169 49.0647 65.7916 49.0271 65.2262ZM31.3627 70.318L33.8766 66.9655C34.0977 66.6704 34.1834 66.2936 34.1106 65.9308L33.449 62.6226C37.8608 60.8807 42.0166 58.8606 45.8448 56.5988L46.3687 64.4463L31.3627 70.318Z" fill="#497BB8"/>
<path d="M37.6971 39.0007H28.9383C28.4665 39.0007 28.0323 39.2568 27.8021 39.6688L16.8088 59.4222C16.5229 59.9369 16.619 60.5816 17.0428 60.9899C17.2911 61.2291 17.6173 61.3539 17.945 61.3539C18.1764 61.3539 18.409 61.2928 18.617 61.1654L38.3703 49.2116C38.7589 48.9763 38.9969 48.5551 38.9969 48.1002V40.3006C38.997 39.5831 38.4146 39.0007 37.6971 39.0007ZM36.3973 47.3682L21.4627 56.4064L29.7016 41.6018V41.6004H36.3973V47.3682Z" fill="#497BB8"/>
<path d="M77.9343 1.25285C77.881 0.61987 77.3794 0.118055 76.7462 0.0647349C76.3146 0.0309149 33.5077 -2.95758 14.9789 45.573C14.7956 46.0527 14.9113 46.5934 15.274 46.9561L21.455 53.1371C21.7449 53.427 22.1504 53.5596 22.5573 53.505C22.9616 53.4465 23.3152 53.2022 23.5128 52.8446L29.7055 41.6005H36.3975V47.3837L25.0857 54.5254C24.7517 54.7373 24.532 55.0883 24.4878 55.4809C24.4436 55.8735 24.5813 56.2647 24.8609 56.5442L31.0419 62.7252C31.2902 62.9735 31.6217 63.1061 31.9609 63.1061C32.1169 63.1061 32.2742 63.0788 32.425 63.0203C80.9579 44.4902 77.9707 1.68322 77.9343 1.25285ZM71.115 24.3158C66.5536 35.6015 56.1154 50.9443 32.2818 60.2893L27.8491 55.8566L38.3913 49.201C38.7682 48.9619 38.997 48.5472 38.997 48.1013V40.3018C38.997 39.5843 38.4146 39.0019 37.6971 39.0019H28.9357C28.4613 39.0019 28.0258 39.2606 27.797 39.6752L22.0683 50.077L17.7098 45.7171C33.9755 4.22185 68.6465 2.52415 75.3864 2.61906C75.4346 5.65051 75.1564 14.3156 71.115 24.3158Z" fill="#497BB8"/>
<path d="M22.2673 57.4138C21.9851 57.0395 21.5354 56.8575 21.0947 56.9042C21.1402 56.4623 20.9582 56.0138 20.5851 55.7317C18.6249 54.2498 16.0953 53.7572 13.6424 54.3784C11.0387 55.04 8.90944 56.8157 7.80191 59.2531L0.117006 76.1609C-0.107851 76.6548 -0.00258248 77.236 0.380863 77.6181C0.629181 77.8676 0.961896 77.9989 1.29994 77.9989C1.48199 77.9989 1.66526 77.9599 1.83817 77.8819L18.746 70.1956C21.182 69.0895 22.9577 66.9602 23.6193 64.3565C24.2419 61.9062 23.7493 59.3754 22.2673 57.4138ZM21.1 63.717C20.6346 65.5512 19.3842 67.0499 17.6709 67.8299L3.91795 74.0811L10.1692 60.3269C10.9478 58.6137 12.4479 57.3631 14.2821 56.8978C14.7644 56.7757 15.2492 56.7158 15.7275 56.7158C16.5374 56.7158 17.3289 56.8887 18.0504 57.2254L16.813 59.4158C16.5256 59.924 16.6128 60.5623 17.0261 60.9744C17.4394 61.3891 18.0777 61.4748 18.5847 61.1875L20.7751 59.9487C21.308 61.0952 21.4289 62.4196 21.1 63.717Z" fill="#497BB8"/>
<path d="M77.9343 1.25422C77.881 0.621239 77.3792 0.119424 76.7462 0.0661039C76.2392 0.0257332 64.1891 -0.886797 50.0176 5.64137C49.6316 5.81809 49.3572 6.17427 49.2818 6.5929C49.2064 7.01154 49.3416 7.44038 49.6419 7.74065L70.2584 28.3571C70.5041 28.6028 70.8356 28.738 71.1775 28.738C71.2541 28.738 71.3309 28.7314 71.4075 28.7185C71.8262 28.6431 72.181 28.3688 72.359 27.9827C78.8884 13.8112 77.9759 1.75984 77.9343 1.25422ZM70.7563 25.1762L52.8228 7.24279C63.1973 2.86341 72.2823 2.56177 75.3878 2.61388C75.4397 5.72196 75.1472 14.7784 70.7563 25.1762Z" fill="#497BB8"/>
<path d="M57.4088 20.5903C53.0372 16.2187 45.9256 16.2187 41.5539 20.5903C37.1823 24.9619 37.1823 32.0735 41.5539 36.4451C43.7391 38.6315 46.6106 39.7235 49.4808 39.7235C52.3523 39.7235 55.2224 38.6303 57.4088 36.4451C61.7804 32.0735 61.7804 24.9617 57.4088 20.5903ZM55.5708 34.607C52.2132 37.9646 46.7497 37.9646 43.3921 34.607C40.0345 31.2493 40.0345 25.7859 43.3921 22.4283C45.0703 20.7501 47.2762 19.9104 49.4809 19.9104C51.6856 19.9104 53.8915 20.7501 55.571 22.4283C58.9284 25.7859 58.9284 31.2493 55.5708 34.607Z" fill="#497BB8"/>
<path d="M52.065 31.1025C50.6403 32.5298 48.3213 32.5284 46.8952 31.1025C45.4705 29.6766 45.4705 27.3588 46.8952 25.9328C48.3199 24.5081 50.6389 24.5068 52.065 25.9328C52.572 26.441 53.3961 26.441 53.903 25.9328C54.4112 25.4245 54.4112 24.603 53.903 24.0947C51.4657 21.6562 47.4958 21.6562 45.0572 24.0947C42.6185 26.5333 42.6185 30.502 45.0572 32.9405C46.2766 34.1598 47.8794 34.7695 49.4808 34.7695C51.0836 34.7695 52.685 34.1598 53.903 32.9405C54.4112 32.4323 54.4112 31.6107 53.903 31.1025C53.396 30.5943 52.572 30.5943 52.065 31.1025Z" fill="#497BB8"/>
</g>
<defs>
<clipPath id="clip0">
<rect width="78" height="78" fill="white"/>
</clipPath>
</defs>
</svg>
