<svg width="78" height="78" viewBox="0 0 78 78" fill="none" xmlns="http://www.w3.org/2000/svg">
<path d="M45.0938 65.8125H42.6562V53.8688C42.6562 53.5455 42.5278 53.2355 42.2993 53.007C42.0707 52.7784 41.7607 52.65 41.4375 52.65C41.1143 52.65 40.8043 52.7784 40.5757 53.007C40.3472 53.2355 40.2188 53.5455 40.2188 53.8688V65.8125H8.53125V41.4375H18.6712C18.9945 41.4375 19.3045 41.3091 19.533 41.0805C19.7616 40.852 19.89 40.542 19.89 40.2188C19.89 39.8955 19.7616 39.5855 19.533 39.357C19.3045 39.1284 18.9945 39 18.6712 39H7.3125C6.98927 39 6.67927 39.1284 6.45071 39.357C6.22215 39.5855 6.09375 39.8955 6.09375 40.2188V65.8125H3.65625C3.33302 65.8125 3.02302 65.9409 2.79446 66.1695C2.5659 66.398 2.4375 66.708 2.4375 67.0312V69.4688C2.4375 71.0849 3.07952 72.6349 4.22232 73.7777C5.36512 74.9205 6.91509 75.5625 8.53125 75.5625H40.2188C41.8349 75.5625 43.3849 74.9205 44.5277 73.7777C45.6705 72.6349 46.3125 71.0849 46.3125 69.4688V67.0312C46.3125 66.708 46.1841 66.398 45.9555 66.1695C45.727 65.9409 45.417 65.8125 45.0938 65.8125ZM43.875 69.4688C43.875 70.4384 43.4898 71.3684 42.8041 72.0541C42.1184 72.7398 41.1884 73.125 40.2188 73.125H37.7812V71.9062C37.7812 71.583 37.6528 71.273 37.4243 71.0445C37.1957 70.8159 36.8857 70.6875 36.5625 70.6875C36.2393 70.6875 35.9293 70.8159 35.7007 71.0445C35.4722 71.273 35.3438 71.583 35.3438 71.9062V73.125H13.4062V71.9062C13.4062 71.583 13.2778 71.273 13.0493 71.0445C12.8207 70.8159 12.5107 70.6875 12.1875 70.6875C11.8643 70.6875 11.5543 70.8159 11.3257 71.0445C11.0972 71.273 10.9688 71.583 10.9688 71.9062V73.125H8.53125C7.56155 73.125 6.63157 72.7398 5.94589 72.0541C5.26021 71.3684 4.875 70.4384 4.875 69.4688V68.25H43.875V69.4688Z" fill="#497BB8"/>
<path d="M65.8125 9.75H68.25C68.5732 9.75 68.8832 9.6216 69.1118 9.39304C69.3403 9.16448 69.4688 8.85448 69.4688 8.53125C69.4688 8.20802 69.3403 7.89802 69.1118 7.66946C68.8832 7.4409 68.5732 7.3125 68.25 7.3125H65.8125C64.8428 7.3125 63.9128 7.69771 63.2271 8.38339C62.5415 9.06907 62.1562 9.99905 62.1562 10.9688V12.1875H60.9375C60.6143 12.1875 60.3043 12.3159 60.0757 12.5445C59.8472 12.773 59.7188 13.083 59.7188 13.4062C59.7188 13.7295 59.8472 14.0395 60.0757 14.268C60.3043 14.4966 60.6143 14.625 60.9375 14.625H62.1562V18.2812C62.1562 18.6045 62.2847 18.9145 62.5132 19.143C62.7418 19.3716 63.0518 19.5 63.375 19.5C63.6982 19.5 64.0082 19.3716 64.2368 19.143C64.4653 18.9145 64.5938 18.6045 64.5938 18.2812V14.625H65.8125C66.1357 14.625 66.4457 14.4966 66.6743 14.268C66.9028 14.0395 67.0312 13.7295 67.0312 13.4062C67.0312 13.083 66.9028 12.773 66.6743 12.5445C66.4457 12.3159 66.1357 12.1875 65.8125 12.1875H64.5938V10.9688C64.5938 10.6455 64.7222 10.3355 64.9507 10.107C65.1793 9.8784 65.4893 9.75 65.8125 9.75Z" fill="#497BB8"/>
<path d="M71.9062 2.4375H57.2812C56.3116 2.4375 55.3816 2.82271 54.6959 3.50839C54.0102 4.19407 53.625 5.12405 53.625 6.09375V8.53125C53.625 8.85448 53.7534 9.16448 53.982 9.39304C54.2105 9.6216 54.5205 9.75 54.8438 9.75C55.167 9.75 55.477 9.6216 55.7055 9.39304C55.9341 9.16448 56.0625 8.85448 56.0625 8.53125V6.09375C56.0625 5.77052 56.1909 5.46052 56.4195 5.23196C56.648 5.0034 56.958 4.875 57.2812 4.875H71.9062C72.2295 4.875 72.5395 5.0034 72.768 5.23196C72.9966 5.46052 73.125 5.77052 73.125 6.09375V20.7188C73.125 21.042 72.9966 21.352 72.768 21.5805C72.5395 21.8091 72.2295 21.9375 71.9062 21.9375H57.2812C56.958 21.9375 56.648 21.8091 56.4195 21.5805C56.1909 21.352 56.0625 21.042 56.0625 20.7188V13.4062C56.0625 13.083 55.9341 12.773 55.7055 12.5445C55.477 12.3159 55.167 12.1875 54.8438 12.1875C54.5205 12.1875 54.2105 12.3159 53.982 12.5445C53.7534 12.773 53.625 13.083 53.625 13.4062V20.7188C53.625 21.6884 54.0102 22.6184 54.6959 23.3041C55.3816 23.9898 56.3116 24.375 57.2812 24.375H71.9062C72.8759 24.375 73.8059 23.9898 74.4916 23.3041C75.1773 22.6184 75.5625 21.6884 75.5625 20.7188V6.09375C75.5625 5.12405 75.1773 4.19407 74.4916 3.50839C73.8059 2.82271 72.8759 2.4375 71.9062 2.4375Z" fill="#497BB8"/>
<path d="M59.7188 51.1875C59.7188 52.1517 60.0047 53.0942 60.5403 53.8959C61.076 54.6976 61.8374 55.3224 62.7282 55.6914C63.619 56.0604 64.5992 56.1569 65.5448 55.9688C66.4905 55.7807 67.3591 55.3164 68.0409 54.6347C68.7227 53.9529 69.187 53.0842 69.3751 52.1386C69.5632 51.1929 69.4667 50.2127 69.0977 49.3219C68.7287 48.4311 68.1039 47.6698 67.3022 47.1341C66.5005 46.5984 65.5579 46.3125 64.5938 46.3125C63.3008 46.3125 62.0608 46.8261 61.1466 47.7404C60.2324 48.6546 59.7188 49.8946 59.7188 51.1875ZM67.0313 51.1875C67.0313 51.6696 66.8883 52.1409 66.6205 52.5417C66.3526 52.9426 65.9719 53.255 65.5265 53.4395C65.0812 53.624 64.5911 53.6722 64.1182 53.5782C63.6454 53.4841 63.2111 53.252 62.8702 52.9111C62.5293 52.5702 62.2971 52.1359 62.2031 51.663C62.109 51.1902 62.1573 50.7001 62.3418 50.2547C62.5263 49.8093 62.8387 49.4286 63.2396 49.1608C63.6404 48.893 64.1117 48.75 64.5938 48.75C65.2402 48.75 65.8602 49.0068 66.3173 49.4639C66.7745 49.9211 67.0313 50.541 67.0313 51.1875Z" fill="#497BB8"/>
<path d="M71.9062 40.2188H57.2812C56.3116 40.2188 55.3816 40.604 54.6959 41.2896C54.0102 41.9753 53.625 42.9053 53.625 43.875V58.5C53.625 59.4697 54.0102 60.3997 54.6959 61.0854C55.3816 61.771 56.3116 62.1562 57.2812 62.1562H71.9062C72.8759 62.1562 73.8059 61.771 74.4916 61.0854C75.1773 60.3997 75.5625 59.4697 75.5625 58.5V56.0625C75.5625 55.7393 75.4341 55.4293 75.2055 55.2007C74.977 54.9722 74.667 54.8438 74.3438 54.8438C74.0205 54.8438 73.7105 54.9722 73.482 55.2007C73.2534 55.4293 73.125 55.7393 73.125 56.0625V58.5C73.125 58.8232 72.9966 59.1332 72.768 59.3618C72.5395 59.5903 72.2295 59.7188 71.9062 59.7188H57.2812C56.958 59.7188 56.648 59.5903 56.4195 59.3618C56.1909 59.1332 56.0625 58.8232 56.0625 58.5V43.875C56.0625 43.5518 56.1909 43.2418 56.4195 43.0132C56.648 42.7847 56.958 42.6562 57.2812 42.6562H71.9062C72.2295 42.6562 72.5395 42.7847 72.768 43.0132C72.9966 43.2418 73.125 43.5518 73.125 43.875V51.1875C73.125 51.5107 73.2534 51.8207 73.482 52.0493C73.7105 52.2778 74.0205 52.4062 74.3438 52.4062C74.667 52.4062 74.977 52.2778 75.2055 52.0493C75.4341 51.8207 75.5625 51.5107 75.5625 51.1875V43.875C75.5625 42.9053 75.1773 41.9753 74.4916 41.2896C73.8059 40.604 72.8759 40.2188 71.9062 40.2188Z" fill="#497BB8"/>
<path d="M29.8228 16.8797C30.0168 16.9999 30.2406 17.0632 30.4687 17.0625C30.6595 17.0614 30.8474 17.0154 31.0172 16.9284L38.3297 13.2722C38.5293 13.1699 38.6968 13.0145 38.8138 12.8232C38.9308 12.6318 38.9927 12.4118 38.9927 12.1875C38.9927 11.9632 38.9308 11.7432 38.8138 11.5519C38.6968 11.3605 38.5293 11.2051 38.3297 11.1028L31.0172 7.44657C30.8316 7.35308 30.6253 7.30857 30.4177 7.31726C30.2102 7.32596 30.0082 7.38757 29.8312 7.49625C29.6541 7.60493 29.5078 7.75706 29.4061 7.93821C29.3043 8.11936 29.2506 8.3235 29.25 8.53125V15.8438C29.2496 16.0509 29.3019 16.2547 29.4022 16.4359C29.5024 16.6172 29.6472 16.7699 29.8228 16.8797ZM31.6875 10.5056L35.0512 12.1875L31.6875 13.8694V10.5056Z" fill="#497BB8"/>
<path d="M32.9062 23.1563C35.0757 23.1563 37.1964 22.5129 39.0002 21.3077C40.804 20.1024 42.2099 18.3893 43.0401 16.3851C43.8703 14.3808 44.0875 12.1753 43.6642 10.0476C43.241 7.91988 42.1963 5.96543 40.6623 4.43143C39.1283 2.89742 37.1739 1.85275 35.0461 1.42952C32.9184 1.00628 30.713 1.2235 28.7087 2.0537C26.7044 2.8839 24.9913 4.28979 23.7861 6.09359C22.5808 7.8974 21.9375 10.0181 21.9375 12.1875C21.9375 15.0966 23.0931 17.8865 25.1502 19.9436C27.2072 22.0006 29.9972 23.1563 32.9062 23.1563ZM32.9062 3.65626C34.5936 3.65626 36.243 4.1566 37.646 5.09403C39.0489 6.03146 40.1424 7.36385 40.7881 8.92274C41.4338 10.4816 41.6028 12.197 41.2736 13.8519C40.9444 15.5068 40.1319 17.0269 38.9388 18.22C37.7456 19.4131 36.2255 20.2256 34.5706 20.5548C32.9157 20.884 31.2004 20.7151 29.6415 20.0694C28.0826 19.4236 26.7502 18.3302 25.8128 16.9272C24.8753 15.5243 24.375 13.8748 24.375 12.1875C24.375 9.92488 25.2738 7.75492 26.8737 6.155C28.4737 4.55508 30.6436 3.65626 32.9062 3.65626Z" fill="#497BB8"/>
<path d="M45.0937 28.0313C45.2829 28.0313 45.4695 27.9872 45.6388 27.9026C45.808 27.818 45.9552 27.6951 46.0687 27.5438L49.725 22.6688C49.9189 22.4102 50.0022 22.0851 49.9565 21.7651C49.9107 21.4452 49.7398 21.1564 49.4812 20.9625C49.2226 20.7686 48.8976 20.6853 48.5776 20.731C48.2576 20.7767 47.9689 20.9477 47.775 21.2063L44.1187 26.0813C43.9248 26.3398 43.8415 26.6649 43.8872 26.9849C43.9329 27.3049 44.1039 27.5936 44.3625 27.7875C44.5734 27.9457 44.83 28.0313 45.0937 28.0313Z" fill="#497BB8"/>
<path d="M47.775 32.4188C47.8885 32.5701 48.0357 32.693 48.2049 32.7776C48.3742 32.8622 48.5608 32.9063 48.75 32.9063C49.0137 32.9063 49.2703 32.8207 49.4812 32.6625L54.3562 29.0063C54.6148 28.8123 54.7857 28.5236 54.8315 28.2036C54.8772 27.8836 54.7939 27.5586 54.6 27.3C54.406 27.0414 54.1173 26.8705 53.7973 26.8248C53.4773 26.779 53.1523 26.8623 52.8937 27.0563L48.0187 30.7125C47.7601 30.9064 47.5892 31.1952 47.5435 31.5152C47.4978 31.8351 47.581 32.1602 47.775 32.4188Z" fill="#497BB8"/>
<path d="M59.7187 35.1C59.6897 34.9384 59.6284 34.7844 59.5384 34.6471C59.4485 34.5098 59.3317 34.3921 59.1951 34.301C59.0585 34.2099 58.905 34.1474 58.7436 34.1172C58.5823 34.0869 58.4165 34.0896 58.2562 34.125L52.1624 35.3438C52.0024 35.3598 51.8471 35.4071 51.7053 35.4832C51.5636 35.5592 51.4382 35.6624 51.3364 35.7869C51.1307 36.0383 51.0333 36.3611 51.0656 36.6844C51.0979 37.0076 51.2573 37.3048 51.5087 37.5105C51.7601 37.7162 52.083 37.8136 52.4062 37.7812H52.6499L58.7437 36.5625C58.9053 36.5335 59.0593 36.4722 59.1966 36.3823C59.3339 36.2923 59.4516 36.1755 59.5427 36.0389C59.6338 35.9023 59.6963 35.7488 59.7265 35.5874C59.7568 35.4261 59.7541 35.2603 59.7187 35.1Z" fill="#497BB8"/>
<path d="M3.65625 35.3438H18.2812C18.6045 35.3438 18.9145 35.2153 19.143 34.9868C19.3716 34.7582 19.5 34.4482 19.5 34.125V14.625C19.5 14.3018 19.3716 13.9918 19.143 13.7632C18.9145 13.5347 18.6045 13.4062 18.2812 13.4062H3.65625C3.33302 13.4062 3.02302 13.5347 2.79446 13.7632C2.5659 13.9918 2.4375 14.3018 2.4375 14.625V34.125C2.4375 34.4482 2.5659 34.7582 2.79446 34.9868C3.02302 35.2153 3.33302 35.3438 3.65625 35.3438ZM4.875 15.8438H17.0625V32.9062H4.875V15.8438Z" fill="#497BB8"/>
<path d="M13.4062 18.2812H10.9688C10.6455 18.2812 10.3355 18.4097 10.107 18.6382C9.8784 18.8668 9.75 19.1768 9.75 19.5C9.75 19.8232 9.8784 20.1332 10.107 20.3618C10.3355 20.5903 10.6455 20.7188 10.9688 20.7188H13.4062C13.7295 20.7188 14.0395 20.5903 14.268 20.3618C14.4966 20.1332 14.625 19.8232 14.625 19.5C14.625 19.1768 14.4966 18.8668 14.268 18.6382C14.0395 18.4097 13.7295 18.2812 13.4062 18.2812Z" fill="#497BB8"/>
<path d="M13.4062 23.1562H8.53125C8.20802 23.1562 7.89802 23.2847 7.66946 23.5132C7.4409 23.7418 7.3125 24.0518 7.3125 24.375C7.3125 24.6982 7.4409 25.0082 7.66946 25.2368C7.89802 25.4653 8.20802 25.5938 8.53125 25.5938H13.4062C13.7295 25.5938 14.0395 25.4653 14.268 25.2368C14.4966 25.0082 14.625 24.6982 14.625 24.375C14.625 24.0518 14.4966 23.7418 14.268 23.5132C14.0395 23.2847 13.7295 23.1562 13.4062 23.1562Z" fill="#497BB8"/>
<path d="M13.4062 28.0312H8.53125C8.20802 28.0312 7.89802 28.1597 7.66946 28.3882C7.4409 28.6168 7.3125 28.9268 7.3125 29.25C7.3125 29.5732 7.4409 29.8832 7.66946 30.1118C7.89802 30.3403 8.20802 30.4688 8.53125 30.4688H13.4062C13.7295 30.4688 14.0395 30.3403 14.268 30.1118C14.4966 29.8832 14.625 29.5732 14.625 29.25C14.625 28.9268 14.4966 28.6168 14.268 28.3882C14.0395 28.1597 13.7295 28.0312 13.4062 28.0312Z" fill="#497BB8"/>
<path d="M44.0213 34.9781C43.9413 34.8389 43.8346 34.7168 43.7074 34.6188C43.5802 34.5207 43.4349 34.4487 43.2798 34.4069C43.1248 34.365 42.963 34.3541 42.8038 34.3747C42.6445 34.3954 42.4909 34.4472 42.3516 34.5272C42.2124 34.6072 42.0902 34.7139 41.9922 34.8411C41.8942 34.9683 41.8222 35.1136 41.7803 35.2686C41.7385 35.4237 41.7275 35.5855 41.7482 35.7447C41.7688 35.904 41.8206 36.0576 41.9007 36.1969L47.2754 45.4959L27.7754 52.8084C27.7754 52.8084 27.7754 52.8084 27.69 52.8084H27.5925L24.4238 54.6366L22.3154 55.8553C22.0378 56.0158 21.7313 56.1199 21.4134 56.1617C21.0955 56.2036 20.7725 56.1823 20.4629 56.0991C19.8408 55.931 19.3106 55.5235 18.9882 54.9656L16.5507 50.7488C16.2639 50.197 16.1988 49.5566 16.3687 48.9585C16.5387 48.3604 16.9307 47.8498 17.4647 47.5313L21.6816 45.0938L24.7285 50.3709C24.8359 50.5569 24.9905 50.7112 25.1767 50.8183C25.3629 50.9253 25.574 50.9812 25.7888 50.9803C26.0031 50.9812 26.2139 50.9255 26.3999 50.8189C26.5858 50.7122 26.7404 50.5585 26.8479 50.3731C26.9554 50.1876 27.0122 49.9771 27.0124 49.7628C27.0126 49.5484 26.9563 49.3378 26.8491 49.1522L23.7047 43.7166L39 31.1025L39.4997 31.9678C39.5798 32.1071 39.6864 32.2292 39.8136 32.3272C39.9409 32.4252 40.0861 32.4972 40.2412 32.5391C40.3962 32.581 40.558 32.5919 40.7173 32.5712C40.8765 32.5506 41.0302 32.4988 41.1694 32.4188C41.3087 32.3387 41.4308 32.2321 41.5288 32.1049C41.6268 31.9776 41.6988 31.8324 41.7407 31.6773C41.7826 31.5223 41.7935 31.3605 41.7728 31.2012C41.7522 31.042 41.7004 30.8883 41.6204 30.7491L40.4016 28.6406C40.3123 28.4879 40.1908 28.3565 40.0456 28.2555C39.9004 28.1545 39.7349 28.0863 39.5607 28.0556C39.3855 28.0226 39.2052 28.0284 39.0326 28.0726C38.8599 28.1169 38.699 28.1984 38.5613 28.3116L21.4988 42.3759L16.3069 45.3741C15.3752 45.9168 14.6497 46.753 14.2439 47.752C13.8382 48.751 13.775 49.8563 14.0644 50.895L12.8457 51.5897C12.2177 51.9503 11.711 52.4893 11.3897 53.1382C11.0685 53.7872 10.9471 54.5169 11.0411 55.2349C11.1351 55.9529 11.4402 56.6269 11.9177 57.1713C12.3952 57.7157 13.0236 58.106 13.7232 58.2928C14.0333 58.375 14.3529 58.416 14.6738 58.4147C15.3149 58.412 15.9446 58.2441 16.5019 57.9272L17.7207 57.2325C18.3061 57.8373 19.0424 58.2749 19.8535 58.5C20.27 58.6165 20.7007 58.6739 21.1332 58.6706C21.9898 58.6726 22.8314 58.4454 23.5707 58.0125L24.631 57.4031L27.0685 61.6322C27.5529 62.4697 28.3495 63.0811 29.2838 63.3324C30.2182 63.5836 31.214 63.4544 32.0532 62.9728C32.4695 62.7329 32.8345 62.4134 33.1272 62.0323C33.4199 61.6513 33.6347 61.2163 33.7592 60.7523C33.8837 60.2882 33.9155 59.8041 33.8528 59.3277C33.7901 58.8514 33.6341 58.392 33.3938 57.9759L31.1757 54.1125L49.4569 47.2509C49.6227 47.1886 49.7729 47.0909 49.8971 46.9646C50.0213 46.8384 50.1165 46.6865 50.176 46.5197C50.2353 46.3549 50.2584 46.1792 50.2437 46.0046C50.2289 45.83 50.1768 45.6607 50.0907 45.5081L44.0213 34.9781ZM15.2344 55.8066C15.0956 55.8868 14.9424 55.9389 14.7834 55.9598C14.6245 55.9807 14.463 55.97 14.3082 55.9284C13.9959 55.8473 13.7286 55.6457 13.5647 55.3678C13.4845 55.229 13.4324 55.0758 13.4115 54.9168C13.3906 54.7579 13.4013 54.5964 13.4429 54.4416C13.4845 54.2859 13.5565 54.1401 13.6548 54.0125C13.7532 53.8849 13.8758 53.778 14.0157 53.6981L15.076 53.0888L16.2947 55.1972L15.2344 55.8066ZM31.2732 59.2191C31.3534 59.3579 31.4055 59.5111 31.4264 59.6701C31.4473 59.829 31.4366 59.9905 31.395 60.1453C31.3081 60.4551 31.1022 60.718 30.8222 60.8766C30.5439 61.0365 30.2136 61.0801 29.9033 60.998C29.5929 60.9158 29.3275 60.7145 29.1647 60.4378L26.7272 56.2088L28.7504 55.0509H28.8479L31.2732 59.2191Z" fill="#497BB8"/>
</svg>
